<?xml version="1.0" encoding="UTF-8"?>
<!DOCTYPE svg PUBLIC "-//W3C//DTD SVG 1.1//EN" "http://www.w3.org/Graphics/SVG/1.1/DTD/svg11.dtd">
<svg xmlns="http://www.w3.org/2000/svg" version="1.1" width="538px" height="150px" style="shape-rendering:geometricPrecision; text-rendering:geometricPrecision; image-rendering:optimizeQuality; fill-rule:evenodd; clip-rule:evenodd" xmlns:xlink="http://www.w3.org/1999/xlink">
<g><path style="opacity:1" fill="#13657a" d="M 96.5,147.5 C 95.8333,143.833 95.1667,140.167 94.5,136.5C 94.3438,127.825 94.0105,119.158 93.5,110.5C 69.1644,110.667 44.8311,110.5 20.5,110C 18.2729,109.879 16.4396,109.046 15,107.5C 9.07175,88.46 4.73842,69.1266 2,49.5C 14.5681,32.8746 27.7348,16.7079 41.5,1C 76.3538,4.75301 111.02,9.91967 145.5,16.5C 158.139,36.9412 170.139,57.7745 181.5,79C 173.761,93.8109 165.761,108.478 157.5,123C 147.167,123.333 136.833,123.667 126.5,124C 116.651,132.083 106.651,139.917 96.5,147.5 Z M 55.5,10.5 C 80.553,13.9124 105.553,17.7458 130.5,22C 113.278,34.888 95.7784,47.388 78,59.5C 68.7234,43.9486 60.2234,27.9486 52.5,11.5C 53.209,10.596 54.209,10.2627 55.5,10.5 Z M 41.5,13.5 C 42.1667,13.8333 42.8333,14.1667 43.5,14.5C 52.4087,30.648 61.0754,46.9813 69.5,63.5C 65.0251,69.3822 59.3584,73.2156 52.5,75C 38.6691,67.2523 25.0024,59.2523 11.5,51C 21.3336,38.3368 31.3336,25.8368 41.5,13.5 Z M 138.5,27.5 C 141.726,46.2966 144.393,65.2966 146.5,84.5C 132.291,89.9592 117.957,95.1258 103.5,100C 102.056,100.781 100.723,100.614 99.5,99.5C 93.4519,89.2391 87.7852,78.7391 82.5,68C 100.789,53.8624 119.456,40.3624 138.5,27.5 Z M 150.5,40.5 C 156.902,52.3021 163.569,63.9688 170.5,75.5C 170.167,76.1667 169.833,76.8333 169.5,77.5C 164.573,78.8647 159.74,80.5313 155,82.5C 152.765,68.885 150.932,55.2183 149.5,41.5C 149.5,40.8333 149.833,40.5 150.5,40.5 Z M 11.5,61.5 C 23.1348,67.6509 34.4682,74.3175 45.5,81.5C 37.9496,88.1055 29.6163,93.4388 20.5,97.5C 17.814,85.4226 14.814,73.4226 11.5,61.5 Z M 85.5,93.5 C 77.68,90.0183 70.3466,85.685 63.5,80.5C 66.9161,76.9631 70.9161,74.7965 75.5,74C 79.4978,80.1623 82.8311,86.6623 85.5,93.5 Z M 34.5,102.5 C 34.5,101.833 34.5,101.167 34.5,100.5C 41.1376,95.843 47.8043,91.1764 54.5,86.5C 63.6628,90.9115 72.3294,96.0781 80.5,102C 65.1703,102.5 49.837,102.667 34.5,102.5 Z M 164.5,87.5 C 165.552,87.3505 166.552,87.5172 167.5,88C 164.126,93.9162 160.626,99.7495 157,105.5C 156.333,100.833 156.333,96.1667 157,91.5C 159.417,89.8724 161.917,88.539 164.5,87.5 Z M 143.5,94.5 C 144.833,94.5 146.167,94.5 147.5,94.5C 148.233,101.493 148.899,108.493 149.5,115.5C 135.311,116.518 121.978,113.685 109.5,107C 120.893,102.705 132.227,98.5388 143.5,94.5 Z M 115.5,118.5 C 115.833,119.167 116.167,119.833 116.5,120.5C 112.435,124.572 108.102,128.238 103.5,131.5C 102.833,131.167 102.167,130.833 101.5,130.5C 101.193,124.907 101.527,119.407 102.5,114C 106.922,114.975 111.255,116.475 115.5,118.5 Z"/></g>
<g><path style="opacity:0.285" fill="#000000" d="M 55.5,10.5 C 54.209,10.2627 53.209,10.596 52.5,11.5C 51.2486,10.528 51.582,9.86136 53.5,9.5C 54.4164,9.54272 55.0831,9.87605 55.5,10.5 Z"/></g>
<g><path style="opacity:0.178" fill="#000000" d="M 41.5,13.5 C 42.6226,12.2426 43.2893,12.5759 43.5,14.5C 42.8333,14.1667 42.1667,13.8333 41.5,13.5 Z"/></g>
<g><path style="opacity:0.251" fill="#000000" d="M 502.5,38.5 C 497.5,38.5 492.5,38.5 487.5,38.5C 487.5,62.1667 487.5,85.8333 487.5,109.5C 486.502,85.6725 486.169,61.6725 486.5,37.5C 492.026,37.1786 497.36,37.5119 502.5,38.5 Z"/></g>
<g><path style="opacity:0.281" fill="#000000" d="M 150.5,40.5 C 149.833,40.5 149.5,40.8333 149.5,41.5C 148.427,40.7494 148.26,39.7494 149,38.5C 149.717,39.0442 150.217,39.7109 150.5,40.5 Z"/></g>
<g><path style="opacity:1" fill="#116a80" d="M 225.5,37.5 C 237.564,37.5154 249.564,38.3487 261.5,40C 270.739,43.2698 275.405,49.9365 275.5,60C 274.878,70.2629 270.211,77.9295 261.5,83C 268.026,91.3589 274.359,99.8589 280.5,108.5C 276.878,109.659 273.211,109.825 269.5,109C 262.804,101.105 256.471,92.9379 250.5,84.5C 245.544,83.5059 240.544,83.1725 235.5,83.5C 235.5,92.1667 235.5,100.833 235.5,109.5C 232.167,109.5 228.833,109.5 225.5,109.5C 225.5,85.5 225.5,61.5 225.5,37.5 Z M 248.5,46.5 C 261.751,47.6648 266.584,54.6648 263,67.5C 261.5,70.3333 259.333,72.5 256.5,74C 249.524,74.8918 242.524,75.3918 235.5,75.5C 235.5,65.8333 235.5,56.1667 235.5,46.5C 239.833,46.5 244.167,46.5 248.5,46.5 Z"/></g>
<g><path style="opacity:1" fill="#0d728a" d="M 294.5,37.5 C 297.5,37.5 300.5,37.5 303.5,37.5C 303.5,61.5 303.5,85.5 303.5,109.5C 300.5,109.5 297.5,109.5 294.5,109.5C 294.5,85.5 294.5,61.5 294.5,37.5 Z"/></g>
<g><path style="opacity:1" fill="#116a81" d="M 392.5,38.5 C 392.823,62.2415 392.489,85.9082 391.5,109.5C 388.518,109.827 385.685,109.827 383,109.5C 382.667,91.5 382.333,73.5 382,55.5C 375.93,68.3013 370.43,81.3013 365.5,94.5C 360.786,94.8266 356.12,94.4933 351.5,93.5C 346.022,80.3931 340.355,67.3931 334.5,54.5C 334.217,53.7109 333.717,53.0442 333,52.5C 332.502,55.4816 332.335,58.4816 332.5,61.5C 332.5,77.5 332.5,93.5 332.5,109.5C 329.833,109.5 327.167,109.5 324.5,109.5C 324.5,85.5 324.5,61.5 324.5,37.5C 328.884,37.1744 333.217,37.5078 337.5,38.5C 343.998,54.166 351.164,69.4994 359,84.5C 366.675,69.4883 373.508,54.155 379.5,38.5C 383.833,38.5 388.167,38.5 392.5,38.5 Z"/></g>
<g><path style="opacity:0.372" fill="#000000" d="M 392.5,38.5 C 393.167,50.1619 393.5,61.9952 393.5,74C 393.499,86.1861 392.832,98.0194 391.5,109.5C 392.489,85.9082 392.823,62.2415 392.5,38.5 Z"/></g>
<g><path style="opacity:1" fill="#12677d" d="M 408.5,109.5 C 408.167,108.833 407.833,108.167 407.5,107.5C 414.631,84.6063 422.465,61.9397 431,39.5C 432.574,38.1524 434.407,37.4858 436.5,37.5C 440.538,37.9486 444.538,38.6152 448.5,39.5C 457.638,62.5821 465.971,85.9155 473.5,109.5C 469.397,110.231 465.897,109.231 463,106.5C 460.931,100.794 458.765,95.1276 456.5,89.5C 445.515,88.3342 434.515,88.1676 423.5,89C 421.201,95.5616 418.701,102.062 416,108.5C 413.619,109.435 411.119,109.768 408.5,109.5 Z M 439.5,47.5 C 441.786,50.4627 443.619,53.796 445,57.5C 447.37,64.4025 449.87,71.2358 452.5,78C 444.173,78.4997 435.84,78.6664 427.5,78.5C 430.331,67.6684 434.331,57.3351 439.5,47.5 Z"/></g>
<g><path style="opacity:1" fill="#106c84" d="M 502.5,38.5 C 507.844,38.334 513.177,38.5006 518.5,39C 531.188,43.1866 536.688,52.0199 535,65.5C 533.226,76.4969 526.726,82.6636 515.5,84C 509.175,84.4995 502.842,84.6662 496.5,84.5C 496.5,92.8333 496.5,101.167 496.5,109.5C 493.5,109.5 490.5,109.5 487.5,109.5C 487.5,85.8333 487.5,62.1667 487.5,38.5C 492.5,38.5 497.5,38.5 502.5,38.5 Z M 498.5,76.5 C 497.976,74.6943 497.309,73.0276 496.5,71.5C 496.169,63.4723 496.502,55.4723 497.5,47.5C 506.029,45.415 514.029,46.5817 521.5,51C 528.667,64.3414 525.001,72.6747 510.5,76C 506.514,76.4988 502.514,76.6655 498.5,76.5 Z"/></g>
<g><path style="opacity:0.27" fill="#000000" d="M 248.5,46.5 C 244.167,46.5 239.833,46.5 235.5,46.5C 235.5,56.1667 235.5,65.8333 235.5,75.5C 234.506,65.6806 234.173,55.6806 234.5,45.5C 239.363,45.1805 244.03,45.5139 248.5,46.5 Z"/></g>
<g><path style="opacity:0.188" fill="#000000" d="M 334.5,54.5 C 333.833,56.8333 333.167,59.1667 332.5,61.5C 332.335,58.4816 332.502,55.4816 333,52.5C 333.717,53.0442 334.217,53.7109 334.5,54.5 Z"/></g>
<g><path style="opacity:0.067" fill="#000000" d="M 496.5,71.5 C 497.309,73.0276 497.976,74.6943 498.5,76.5C 496.744,75.4479 496.077,73.7812 496.5,71.5 Z"/></g>
<g><path style="opacity:0.157" fill="#000000" d="M 170.5,75.5 C 171.757,76.6226 171.424,77.2893 169.5,77.5C 169.833,76.8333 170.167,76.1667 170.5,75.5 Z"/></g>
<g><path style="opacity:0.173" fill="#000000" d="M 34.5,100.5 C 34.5,101.167 34.5,101.833 34.5,102.5C 32.0673,102.214 32.0673,101.548 34.5,100.5 Z"/></g>
<g><path style="opacity:0.203" fill="#000000" d="M 407.5,107.5 C 407.833,108.167 408.167,108.833 408.5,109.5C 406.576,109.289 406.243,108.623 407.5,107.5 Z"/></g>
<g><path style="opacity:0.179" fill="#000000" d="M 115.5,118.5 C 117.424,118.711 117.757,119.377 116.5,120.5C 116.167,119.833 115.833,119.167 115.5,118.5 Z"/></g>
<g><path style="opacity:0.255" fill="#000000" d="M 101.5,130.5 C 102.167,130.833 102.833,131.167 103.5,131.5C 102.377,132.757 101.711,132.424 101.5,130.5 Z"/></g>
<g><path style="opacity:0.289" fill="#000000" d="M 94.5,136.5 C 95.1667,140.167 95.8333,143.833 96.5,147.5C 96.44,148.043 96.1067,148.376 95.5,148.5C 94.5091,144.555 94.1758,140.555 94.5,136.5 Z"/></g>
</svg>
