<?xml version="1.0" standalone="no"?>
<!DOCTYPE svg PUBLIC "-//W3C//DTD SVG 20010904//EN"
 "http://www.w3.org/TR/2001/REC-SVG-20010904/DTD/svg10.dtd">
<svg version="1.0" xmlns="http://www.w3.org/2000/svg"
 width="430.000000pt" height="120.000000pt" viewBox="0 0 430.000000 120.000000"
 preserveAspectRatio="xMidYMid meet">

<g transform="translate(0.000000,120.000000) scale(0.100000,-0.100000)"
fill="#000000" stroke="none">
<path d="M179 998 c-83 -106 -156 -198 -160 -204 -7 -9 46 -241 97 -421 l14
-53 313 -2 312 -3 5 -152 5 -151 125 98 125 99 120 1 120 0 97 173 c54 95 98
177 98 182 0 11 -280 494 -290 500 -8 5 -793 125 -817 125 -6 0 -80 -87 -164
-192z m564 75 c174 -26 317 -49 317 -52 -1 -3 -67 -52 -148 -108 -81 -56 -179
-124 -218 -152 l-72 -51 -110 205 c-60 113 -105 205 -98 205 6 0 154 -21 329
-47z m-287 -175 c60 -112 109 -208 109 -215 0 -7 -29 -33 -64 -58 -58 -40 -67
-43 -85 -32 -12 8 -90 53 -173 101 -84 48 -153 90 -153 93 0 8 243 313 250
313 4 0 56 -91 116 -202z m694 -150 c15 -128 27 -234 26 -235 -1 -1 -86 -32
-189 -67 l-186 -65 -71 131 c-39 72 -72 136 -73 140 -2 9 455 338 462 332 2
-2 16 -108 31 -236z m146 -25 l82 -141 -70 -26 c-39 -15 -72 -25 -73 -24 -2 2
-10 68 -19 148 -10 80 -20 163 -22 185 -6 47 -14 58 102 -142z m-1057 -94 c78
-44 141 -82 141 -84 0 -11 -204 -145 -210 -138 -4 4 -21 64 -38 133 -18 69
-35 135 -38 148 -3 12 -4 22 -1 22 3 0 68 -36 146 -81z m418 -104 c28 -52 49
-95 47 -95 -9 0 -204 114 -204 120 0 6 91 70 100 70 3 0 29 -43 57 -95z m-105
-77 c59 -34 108 -66 108 -70 0 -4 -90 -8 -201 -8 -127 0 -199 4 -197 10 3 9
167 129 178 130 2 0 53 -28 112 -62z m764 -10 c-19 -35 -42 -72 -50 -83 -16
-21 -16 -20 -20 97 -1 17 9 25 49 38 28 10 52 16 53 14 2 -1 -12 -31 -32 -66z
m-132 4 c2 -4 7 -45 11 -91 l8 -83 -99 4 c-86 4 -108 9 -169 37 l-70 33 150
53 c168 59 162 58 169 47z m-241 -201 c9 -9 -114 -112 -125 -104 -9 5 -11 147
-2 155 6 6 112 -37 127 -51z"/>
<path d="M1810 606 l0 -286 35 0 35 0 0 105 0 105 63 0 63 0 78 -105 c76 -102
79 -105 117 -105 21 0 39 3 39 8 0 4 -34 52 -76 107 l-75 100 23 15 c85 56
113 173 61 262 -33 56 -82 72 -230 76 l-133 4 0 -286z m244 210 c46 -19 66
-51 66 -108 0 -39 -6 -54 -29 -80 -28 -32 -32 -33 -120 -36 l-91 -4 0 121 0
121 70 0 c39 0 86 -6 104 -14z"/>
<path d="M2360 605 l0 -285 35 0 35 0 0 285 0 285 -35 0 -35 0 0 -285z"/>
<path d="M2600 605 l0 -285 30 0 30 0 0 230 c0 127 3 230 8 230 4 0 40 -77 81
-170 l74 -170 46 0 46 0 75 172 75 172 3 -233 2 -232 38 3 37 3 0 280 0 280
-49 0 -49 0 -82 -185 c-45 -101 -86 -185 -92 -187 -5 -2 -47 82 -93 187 l-84
190 -48 0 -48 0 0 -285z"/>
<path d="M3449 863 c-33 -86 -189 -525 -189 -533 0 -6 15 -10 33 -10 32 0 33
2 62 85 l29 85 137 0 136 0 30 -82 c30 -82 31 -83 67 -86 20 -2 36 0 35 5 0 4
-46 132 -102 283 l-103 275 -62 3 c-60 3 -63 2 -73 -25z m133 -170 c26 -70 46
-129 44 -130 -2 -2 -51 -2 -108 -1 l-106 3 45 128 c34 94 50 127 62 127 12 0
29 -34 63 -127z"/>
<path d="M3900 606 l0 -286 35 0 35 0 0 100 0 100 68 0 c162 0 242 62 242 185
0 74 -30 129 -85 158 -33 18 -62 22 -167 25 l-128 4 0 -286z m233 210 c54 -22
72 -51 72 -113 0 -49 -3 -58 -32 -83 -34 -31 -89 -44 -158 -38 l-40 3 -3 109
c-1 61 0 116 2 123 7 18 117 17 159 -1z"/>
</g>
</svg>
