<?xml version="1.0" encoding="utf-8"?><svg id="RIMAP-logo-plavi-animacija" image-rendering="auto" baseProfile="basic" version="1.1" preserveAspectRatio="xMidYMid meet" x="0px" y="0px" width="297" height="83" xmlns="http://www.w3.org/2000/svg" viewBox="0 0 297 83" xmlns:xlink="http://www.w3.org/1999/xlink"><g id="Scene-1" overflow="visible"><g display="none"><path id="Layer156_0_1_STROKES" stroke="#FFFFFF" stroke-width="4.25" stroke-linejoin="miter" stroke-linecap="butt" stroke-miterlimit="10" fill="none" d="M11.55 58.95L55.15 58.95 55.15 78.2 70.8 66.05 86.2 66.1 98.85 43.95 79.75 11.1 24.9 2.85 3.95 29.35 11.55 58.95Z"/><animate attributeName="display" repeatCount="indefinite" dur="2s" keyTimes="0;.979;1" values="none;inline;inline"/></g><g><path id="Layer155_0_1_STROKES" stroke="#FFFFFF" stroke-width="4.25" stroke-linejoin="miter" stroke-linecap="butt" stroke-miterlimit="10" fill="none" d="M11.55 58.95L55.15 58.95 55.15 78.2 70.8 66.05 86.2 66.1 98.85 43.95 79.75 11.1 24.9 2.85 3.95 29.35 11.55 58.95Z"/><animate attributeName="display" repeatCount="indefinite" dur="2s" keyTimes="0;.979;1" values="inline;none;none"/></g><g display="none"><path id="Layer154_0_1_STROKES" stroke="#FFFFFF" stroke-width="4.25" stroke-linejoin="miter" stroke-linecap="butt" stroke-miterlimit="10" fill="none" d="M24.9 2.85L55.15 58.95 98.85 43.95"/><animate attributeName="display" repeatCount="indefinite" dur="2s" keyTimes="0;.979;1" values="none;inline;inline"/></g><g display="none"><path id="Layer153_0_1_STROKES" stroke="#FFFFFF" stroke-width="4.25" stroke-linejoin="miter" stroke-linecap="butt" stroke-miterlimit="10" fill="none" d="M24.9 2.85L55.15 57.45 98.85 43.95"/><animate attributeName="display" repeatCount="indefinite" dur="2s" keyTimes="0;.958;.979;1" values="none;inline;none;none"/></g><g display="none"><path id="Layer152_0_1_STROKES" stroke="#FFFFFF" stroke-width="4.25" stroke-linejoin="miter" stroke-linecap="butt" stroke-miterlimit="10" fill="none" d="M24.9 2.85L55.1 56 98.85 43.95"/><animate attributeName="display" repeatCount="indefinite" dur="2s" keyTimes="0;.938;.958;1" values="none;inline;none;none"/></g><g display="none"><path id="Layer151_0_1_STROKES" stroke="#FFFFFF" stroke-width="4.25" stroke-linejoin="miter" stroke-linecap="butt" stroke-miterlimit="10" fill="none" d="M24.9 2.85L55.1 54.5 98.85 43.95"/><animate attributeName="display" repeatCount="indefinite" dur="2s" keyTimes="0;.917;.938;1" values="none;inline;none;none"/></g><g display="none"><path id="Layer150_0_1_STROKES" stroke="#FFFFFF" stroke-width="4.25" stroke-linejoin="miter" stroke-linecap="butt" stroke-miterlimit="10" fill="none" d="M24.9 2.85L55.1 53.05 98.85 43.95"/><animate attributeName="display" repeatCount="indefinite" dur="2s" keyTimes="0;.896;.917;1" values="none;inline;none;none"/></g><g display="none"><path id="Layer149_0_1_STROKES" stroke="#FFFFFF" stroke-width="4.25" stroke-linejoin="miter" stroke-linecap="butt" stroke-miterlimit="10" fill="none" d="M24.9 2.85L55.05 51.55 98.85 43.95"/><animate attributeName="display" repeatCount="indefinite" dur="2s" keyTimes="0;.875;.896;1" values="none;inline;none;none"/></g><g display="none"><path id="Layer148_0_1_STROKES" stroke="#FFFFFF" stroke-width="4.25" stroke-linejoin="miter" stroke-linecap="butt" stroke-miterlimit="10" fill="none" d="M24.9 2.85L55.05 50.05 98.85 43.95"/><animate attributeName="display" repeatCount="indefinite" dur="2s" keyTimes="0;.854;.875;1" values="none;inline;none;none"/></g><g display="none"><path id="Layer147_0_1_STROKES" stroke="#FFFFFF" stroke-width="4.25" stroke-linejoin="miter" stroke-linecap="butt" stroke-miterlimit="10" fill="none" d="M24.9 2.85L55 48.6 98.85 43.95"/><animate attributeName="display" repeatCount="indefinite" dur="2s" keyTimes="0;.833;.854;1" values="none;inline;none;none"/></g><g display="none"><path id="Layer146_0_1_STROKES" stroke="#FFFFFF" stroke-width="4.25" stroke-linejoin="miter" stroke-linecap="butt" stroke-miterlimit="10" fill="none" d="M24.9 2.85L55 47.1 98.85 43.95"/><animate attributeName="display" repeatCount="indefinite" dur="2s" keyTimes="0;.813;.833;1" values="none;inline;none;none"/></g><g display="none"><path id="Layer145_0_1_STROKES" stroke="#FFFFFF" stroke-width="4.25" stroke-linejoin="miter" stroke-linecap="butt" stroke-miterlimit="10" fill="none" d="M24.9 2.85L57.4 46.7 98.85 43.95"/><animate attributeName="display" repeatCount="indefinite" dur="2s" keyTimes="0;.792;.813;1" values="none;inline;none;none"/></g><g display="none"><path id="Layer144_0_1_STROKES" stroke="#FFFFFF" stroke-width="4.25" stroke-linejoin="miter" stroke-linecap="butt" stroke-miterlimit="10" fill="none" d="M24.9 2.9L59.75 46.4 98.85 44"/><animate attributeName="display" repeatCount="indefinite" dur="2s" keyTimes="0;.771;.792;1" values="none;inline;none;none"/></g><g display="none"><path id="Layer143_0_1_STROKES" stroke="#FFFFFF" stroke-width="4.25" stroke-linejoin="miter" stroke-linecap="butt" stroke-miterlimit="10" fill="none" d="M24.9 2.85L62.15 45.95 98.85 43.95"/><animate attributeName="display" repeatCount="indefinite" dur="2s" keyTimes="0;.75;.771;1" values="none;inline;none;none"/></g><g display="none"><path id="Layer142_0_1_STROKES" stroke="#FFFFFF" stroke-width="4.25" stroke-linejoin="miter" stroke-linecap="butt" stroke-miterlimit="10" fill="none" d="M24.9 2.85L64.5 45.55 98.85 43.95"/><animate attributeName="display" repeatCount="indefinite" dur="2s" keyTimes="0;.729;.75;1" values="none;inline;none;none"/></g><g display="none"><path id="Layer141_0_1_STROKES" stroke="#FFFFFF" stroke-width="4.25" stroke-linejoin="miter" stroke-linecap="butt" stroke-miterlimit="10" fill="none" d="M24.9 2.85L66.9 45.15 98.85 43.95"/><animate attributeName="display" repeatCount="indefinite" dur="2s" keyTimes="0;.708;.729;1" values="none;inline;none;none"/></g><g display="none"><path id="Layer140_0_1_STROKES" stroke="#FFFFFF" stroke-width="4.25" stroke-linejoin="miter" stroke-linecap="butt" stroke-miterlimit="10" fill="none" d="M24.9 2.85L69.25 44.8 98.85 43.95"/><animate attributeName="display" repeatCount="indefinite" dur="2s" keyTimes="0;.688;.708;1" values="none;inline;none;none"/></g><g display="none"><path id="Layer139_0_1_STROKES" stroke="#FFFFFF" stroke-width="4.25" stroke-linejoin="miter" stroke-linecap="butt" stroke-miterlimit="10" fill="none" d="M24.9 2.9L71.65 44.45 98.85 44"/><animate attributeName="display" repeatCount="indefinite" dur="2s" keyTimes="0;.667;.688;1" values="none;inline;none;none"/></g><g display="none"><path id="Layer138_0_1_STROKES" stroke="#FFFFFF" stroke-width="4.25" stroke-linejoin="miter" stroke-linecap="butt" stroke-miterlimit="10" fill="none" d="M24.9 2.85L74 44 98.85 43.95"/><animate attributeName="display" repeatCount="indefinite" dur="2s" keyTimes="0;.646;.667;1" values="none;inline;none;none"/></g><g display="none"><path id="Layer137_0_1_STROKES" stroke="#FFFFFF" stroke-width="4.25" stroke-linejoin="miter" stroke-linecap="butt" stroke-miterlimit="10" fill="none" d="M24.9 2.85L72.3 44 98.85 43.95"/><animate attributeName="display" repeatCount="indefinite" dur="2s" keyTimes="0;.625;.646;1" values="none;inline;none;none"/></g><g display="none"><path id="Layer136_0_1_STROKES" stroke="#FFFFFF" stroke-width="4.25" stroke-linejoin="miter" stroke-linecap="butt" stroke-miterlimit="10" fill="none" d="M24.9 2.85L70.6 44 98.85 43.95"/><animate attributeName="display" repeatCount="indefinite" dur="2s" keyTimes="0;.604;.625;1" values="none;inline;none;none"/></g><g display="none"><path id="Layer135_0_1_STROKES" stroke="#FFFFFF" stroke-width="4.25" stroke-linejoin="miter" stroke-linecap="butt" stroke-miterlimit="10" fill="none" d="M24.9 2.85L68.9 44 98.85 43.95"/><animate attributeName="display" repeatCount="indefinite" dur="2s" keyTimes="0;.583;.604;1" values="none;inline;none;none"/></g><g display="none"><path id="Layer134_0_1_STROKES" stroke="#FFFFFF" stroke-width="4.25" stroke-linejoin="miter" stroke-linecap="butt" stroke-miterlimit="10" fill="none" d="M24.9 2.85L67.25 44 98.85 43.95"/><animate attributeName="display" repeatCount="indefinite" dur="2s" keyTimes="0;.563;.583;1" values="none;inline;none;none"/></g><g display="none"><path id="Layer133_0_1_STROKES" stroke="#FFFFFF" stroke-width="4.25" stroke-linejoin="miter" stroke-linecap="butt" stroke-miterlimit="10" fill="none" d="M24.9 2.85L65.55 44 98.85 43.95"/><animate attributeName="display" repeatCount="indefinite" dur="2s" keyTimes="0;.542;.563;1" values="none;inline;none;none"/></g><g display="none"><path id="Layer132_0_1_STROKES" stroke="#FFFFFF" stroke-width="4.25" stroke-linejoin="miter" stroke-linecap="butt" stroke-miterlimit="10" fill="none" d="M24.9 2.85L63.85 44 98.85 43.95"/><animate attributeName="display" repeatCount="indefinite" dur="2s" keyTimes="0;.521;.542;1" values="none;inline;none;none"/></g><g display="none"><path id="Layer131_0_1_STROKES" stroke="#FFFFFF" stroke-width="4.25" stroke-linejoin="miter" stroke-linecap="butt" stroke-miterlimit="10" fill="none" d="M24.9 2.85L62.15 44 98.85 43.95"/><animate attributeName="display" repeatCount="indefinite" dur="2s" keyTimes="0;.5;.521;1" values="none;inline;none;none"/></g><g display="none"><path id="Layer130_0_1_STROKES" stroke="#FFFFFF" stroke-width="4.25" stroke-linejoin="miter" stroke-linecap="butt" stroke-miterlimit="10" fill="none" d="M24.9 2.85L60.45 44 98.85 43.95"/><animate attributeName="display" repeatCount="indefinite" dur="2s" keyTimes="0;.479;.5;1" values="none;inline;none;none"/></g><g display="none"><path id="Layer129_0_1_STROKES" stroke="#FFFFFF" stroke-width="4.25" stroke-linejoin="miter" stroke-linecap="butt" stroke-miterlimit="10" fill="none" d="M24.9 2.85L62.45 42.6 98.85 43.95"/><animate attributeName="display" repeatCount="indefinite" dur="2s" keyTimes="0;.458;.479;1" values="none;inline;none;none"/></g><g display="none"><path id="Layer128_0_1_STROKES" stroke="#FFFFFF" stroke-width="4.25" stroke-linejoin="miter" stroke-linecap="butt" stroke-miterlimit="10" fill="none" d="M24.9 2.85L64.4 41.15 98.85 43.95"/><animate attributeName="display" repeatCount="indefinite" dur="2s" keyTimes="0;.438;.458;1" values="none;inline;none;none"/></g><g display="none"><path id="Layer127_0_1_STROKES" stroke="#FFFFFF" stroke-width="4.25" stroke-linejoin="miter" stroke-linecap="butt" stroke-miterlimit="10" fill="none" d="M24.9 2.85L66.4 39.75 98.85 43.95"/><animate attributeName="display" repeatCount="indefinite" dur="2s" keyTimes="0;.417;.438;1" values="none;inline;none;none"/></g><g display="none"><path id="Layer126_0_1_STROKES" stroke="#FFFFFF" stroke-width="4.25" stroke-linejoin="miter" stroke-linecap="butt" stroke-miterlimit="10" fill="none" d="M24.9 2.85L68.35 38.3 98.85 43.95"/><animate attributeName="display" repeatCount="indefinite" dur="2s" keyTimes="0;.396;.417;1" values="none;inline;none;none"/></g><g display="none"><path id="Layer125_0_1_STROKES" stroke="#FFFFFF" stroke-width="4.25" stroke-linejoin="miter" stroke-linecap="butt" stroke-miterlimit="10" fill="none" d="M24.9 2.85L70.35 36.9 98.85 43.95"/><animate attributeName="display" repeatCount="indefinite" dur="2s" keyTimes="0;.375;.396;1" values="none;inline;none;none"/></g><g display="none"><path id="Layer124_0_1_STROKES" stroke="#FFFFFF" stroke-width="4.25" stroke-linejoin="miter" stroke-linecap="butt" stroke-miterlimit="10" fill="none" d="M24.9 2.85L72.3 35.45 98.85 43.95"/><animate attributeName="display" repeatCount="indefinite" dur="2s" keyTimes="0;.354;.375;1" values="none;inline;none;none"/></g><g display="none"><path id="Layer123_0_1_STROKES" stroke="#FFFFFF" stroke-width="4.25" stroke-linejoin="miter" stroke-linecap="butt" stroke-miterlimit="10" fill="none" d="M24.9 2.85L74.3 34.05 98.85 43.95"/><animate attributeName="display" repeatCount="indefinite" dur="2s" keyTimes="0;.333;.354;1" values="none;inline;none;none"/></g><g display="none"><path id="Layer122_0_1_STROKES" stroke="#FFFFFF" stroke-width="4.25" stroke-linejoin="miter" stroke-linecap="butt" stroke-miterlimit="10" fill="none" d="M24.9 2.85L76.25 32.6 98.85 43.95"/><animate attributeName="display" repeatCount="indefinite" dur="2s" keyTimes="0;.313;.333;1" values="none;inline;none;none"/></g><g display="none"><path id="Layer121_0_1_STROKES" stroke="#FFFFFF" stroke-width="4.25" stroke-linejoin="miter" stroke-linecap="butt" stroke-miterlimit="10" fill="none" d="M24.9 2.85L73.3 33.95 98.85 43.95"/><animate attributeName="display" repeatCount="indefinite" dur="2s" keyTimes="0;.292;.313;1" values="none;inline;none;none"/></g><g display="none"><path id="Layer120_0_1_STROKES" stroke="#FFFFFF" stroke-width="4.25" stroke-linejoin="miter" stroke-linecap="butt" stroke-miterlimit="10" fill="none" d="M24.9 2.85L70.3 35.35 98.85 43.95"/><animate attributeName="display" repeatCount="indefinite" dur="2s" keyTimes="0;.271;.292;1" values="none;inline;none;none"/></g><g display="none"><path id="Layer119_0_1_STROKES" stroke="#FFFFFF" stroke-width="4.25" stroke-linejoin="miter" stroke-linecap="butt" stroke-miterlimit="10" fill="none" d="M24.9 2.85L67.35 36.7 98.85 43.95"/><animate attributeName="display" repeatCount="indefinite" dur="2s" keyTimes="0;.25;.271;1" values="none;inline;none;none"/></g><g display="none"><path id="Layer118_0_1_STROKES" stroke="#FFFFFF" stroke-width="4.25" stroke-linejoin="miter" stroke-linecap="butt" stroke-miterlimit="10" fill="none" d="M24.9 2.85L64.35 38.05 98.85 43.95"/><animate attributeName="display" repeatCount="indefinite" dur="2s" keyTimes="0;.229;.25;1" values="none;inline;none;none"/></g><g display="none"><path id="Layer117_0_1_STROKES" stroke="#FFFFFF" stroke-width="4.25" stroke-linejoin="miter" stroke-linecap="butt" stroke-miterlimit="10" fill="none" d="M24.9 2.85L61.4 39.4 98.85 43.95"/><animate attributeName="display" repeatCount="indefinite" dur="2s" keyTimes="0;.208;.229;1" values="none;inline;none;none"/></g><g display="none"><path id="Layer116_0_1_STROKES" stroke="#FFFFFF" stroke-width="4.25" stroke-linejoin="miter" stroke-linecap="butt" stroke-miterlimit="10" fill="none" d="M24.9 2.85L58.4 40.8 98.85 43.95"/><animate attributeName="display" repeatCount="indefinite" dur="2s" keyTimes="0;.188;.208;1" values="none;inline;none;none"/></g><g display="none"><path id="Layer115_0_1_STROKES" stroke="#FFFFFF" stroke-width="4.25" stroke-linejoin="miter" stroke-linecap="butt" stroke-miterlimit="10" fill="none" d="M24.9 2.85L55.45 42.15 98.85 43.95"/><animate attributeName="display" repeatCount="indefinite" dur="2s" keyTimes="0;.167;.188;1" values="none;inline;none;none"/></g><g display="none"><path id="Layer114_0_1_STROKES" stroke="#FFFFFF" stroke-width="4.25" stroke-linejoin="miter" stroke-linecap="butt" stroke-miterlimit="10" fill="none" d="M24.9 2.85L55.4 44.25 98.85 43.95"/><animate attributeName="display" repeatCount="indefinite" dur="2s" keyTimes="0;.146;.167;1" values="none;inline;none;none"/></g><g display="none"><path id="Layer113_0_1_STROKES" stroke="#FFFFFF" stroke-width="4.25" stroke-linejoin="miter" stroke-linecap="butt" stroke-miterlimit="10" fill="none" d="M24.9 2.9L55.4 46.4 98.85 44"/><animate attributeName="display" repeatCount="indefinite" dur="2s" keyTimes="0;.125;.146;1" values="none;inline;none;none"/></g><g display="none"><path id="Layer112_0_1_STROKES" stroke="#FFFFFF" stroke-width="4.25" stroke-linejoin="miter" stroke-linecap="butt" stroke-miterlimit="10" fill="none" d="M24.9 2.85L55.35 48.45 98.85 43.95"/><animate attributeName="display" repeatCount="indefinite" dur="2s" keyTimes="0;.104;.125;1" values="none;inline;none;none"/></g><g display="none"><path id="Layer111_0_1_STROKES" stroke="#FFFFFF" stroke-width="4.25" stroke-linejoin="miter" stroke-linecap="butt" stroke-miterlimit="10" fill="none" d="M24.9 2.85L55.3 50.55 98.85 43.95"/><animate attributeName="display" repeatCount="indefinite" dur="2s" keyTimes="0;.083;.104;1" values="none;inline;none;none"/></g><g display="none"><path id="Layer110_0_1_STROKES" stroke="#FFFFFF" stroke-width="4.25" stroke-linejoin="miter" stroke-linecap="butt" stroke-miterlimit="10" fill="none" d="M24.9 2.85L55.25 52.65 98.85 43.95"/><animate attributeName="display" repeatCount="indefinite" dur="2s" keyTimes="0;.063;.083;1" values="none;inline;none;none"/></g><g display="none"><path id="Layer109_0_1_STROKES" stroke="#FFFFFF" stroke-width="4.25" stroke-linejoin="miter" stroke-linecap="butt" stroke-miterlimit="10" fill="none" d="M24.9 2.85L55.25 54.75 98.85 43.95"/><animate attributeName="display" repeatCount="indefinite" dur="2s" keyTimes="0;.042;.063;1" values="none;inline;none;none"/></g><g display="none"><path id="Layer108_0_1_STROKES" stroke="#FFFFFF" stroke-width="4.25" stroke-linejoin="miter" stroke-linecap="butt" stroke-miterlimit="10" fill="none" d="M24.9 2.9L55.2 56.9 98.85 44"/><animate attributeName="display" repeatCount="indefinite" dur="2s" keyTimes="0;.021;.042;1" values="none;inline;none;none"/></g><g><path id="Layer107_0_1_STROKES" stroke="#FFFFFF" stroke-width="4.25" stroke-linejoin="miter" stroke-linecap="butt" stroke-miterlimit="10" fill="none" d="M24.9 2.85L55.15 58.95 98.85 43.95"/><animate attributeName="display" repeatCount="indefinite" dur="2s" keyTimes="0;.021;1" values="inline;none;none"/></g><g display="none"><path id="Layer106_0_1_STROKES" stroke="#FFFFFF" stroke-width="4.25" stroke-linejoin="bevel" stroke-linecap="butt" fill="none" d="M3.95 29.35L55.15 58.95 70.8 66.05"/><animate attributeName="display" repeatCount="indefinite" dur="2s" keyTimes="0;.979;1" values="none;inline;inline"/></g><g display="none"><path id="Layer104_0_1_STROKES" stroke="#FFFFFF" stroke-width="4.25" stroke-linejoin="bevel" stroke-linecap="butt" fill="none" d="M3.95 29.35L55.1 56 70.8 66.05"/><animate attributeName="display" repeatCount="indefinite" dur="2s" keyTimes="0;.938;.958;1" values="none;inline;none;none"/></g><g display="none"><path id="Layer103_0_1_STROKES" stroke="#FFFFFF" stroke-width="4.25" stroke-linejoin="bevel" stroke-linecap="butt" fill="none" d="M3.95 29.35L55.1 54.5 70.8 66.05"/><animate attributeName="display" repeatCount="indefinite" dur="2s" keyTimes="0;.917;.938;1" values="none;inline;none;none"/></g><g display="none"><path id="Layer102_0_1_STROKES" stroke="#FFFFFF" stroke-width="4.25" stroke-linejoin="bevel" stroke-linecap="butt" fill="none" d="M3.95 29.35L55.1 53.05 70.8 66.05"/><animate attributeName="display" repeatCount="indefinite" dur="2s" keyTimes="0;.896;.917;1" values="none;inline;none;none"/></g><g display="none"><path id="Layer101_0_1_STROKES" stroke="#FFFFFF" stroke-width="4.25" stroke-linejoin="bevel" stroke-linecap="butt" fill="none" d="M3.95 29.35L55.05 51.55 70.8 66.05"/><animate attributeName="display" repeatCount="indefinite" dur="2s" keyTimes="0;.875;.896;1" values="none;inline;none;none"/></g><g display="none"><path id="Layer100_0_1_STROKES" stroke="#FFFFFF" stroke-width="4.25" stroke-linejoin="bevel" stroke-linecap="butt" fill="none" d="M3.95 29.35L55.05 50.05 70.8 66.05"/><animate attributeName="display" repeatCount="indefinite" dur="2s" keyTimes="0;.854;.875;1" values="none;inline;none;none"/></g><g display="none"><path id="Layer99_0_1_STROKES" stroke="#FFFFFF" stroke-width="4.25" stroke-linejoin="bevel" stroke-linecap="butt" fill="none" d="M3.95 29.35L55 48.6 70.8 66.05"/><animate attributeName="display" repeatCount="indefinite" dur="2s" keyTimes="0;.833;.854;1" values="none;inline;none;none"/></g><g display="none"><path id="Layer98_0_1_STROKES" stroke="#FFFFFF" stroke-width="4.25" stroke-linejoin="bevel" stroke-linecap="butt" fill="none" d="M3.95 29.35L55 47.1 70.8 66.05"/><animate attributeName="display" repeatCount="indefinite" dur="2s" keyTimes="0;.813;.833;1" values="none;inline;none;none"/></g><g display="none"><path id="Layer97_0_1_STROKES" stroke="#FFFFFF" stroke-width="4.25" stroke-linejoin="bevel" stroke-linecap="butt" fill="none" d="M3.95 29.35L53.65 43.6 70.8 66.05"/><animate attributeName="display" repeatCount="indefinite" dur="2s" keyTimes="0;.792;.813;1" values="none;inline;none;none"/></g><g display="none"><path id="Layer96_0_1_STROKES" stroke="#FFFFFF" stroke-width="4.25" stroke-linejoin="bevel" stroke-linecap="butt" fill="none" d="M3.95 29.35L52.3 40.1 70.8 66.05"/><animate attributeName="display" repeatCount="indefinite" dur="2s" keyTimes="0;.771;.792;1" values="none;inline;none;none"/></g><g display="none"><path id="Layer95_0_1_STROKES" stroke="#FFFFFF" stroke-width="4.25" stroke-linejoin="bevel" stroke-linecap="butt" fill="none" d="M3.95 29.35L50.95 36.55 70.8 66.05"/><animate attributeName="display" repeatCount="indefinite" dur="2s" keyTimes="0;.75;.771;1" values="none;inline;none;none"/></g><g display="none"><path id="Layer94_0_1_STROKES" stroke="#FFFFFF" stroke-width="4.25" stroke-linejoin="bevel" stroke-linecap="butt" fill="none" d="M3.95 29.35L49.6 33.05 70.8 66.05"/><animate attributeName="display" repeatCount="indefinite" dur="2s" keyTimes="0;.729;.75;1" values="none;inline;none;none"/></g><g display="none"><path id="Layer93_0_1_STROKES" stroke="#FFFFFF" stroke-width="4.25" stroke-linejoin="bevel" stroke-linecap="butt" fill="none" d="M3.95 29.35L48.25 29.55 70.8 66.05"/><animate attributeName="display" repeatCount="indefinite" dur="2s" keyTimes="0;.708;.729;1" values="none;inline;none;none"/></g><g display="none"><path id="Layer92_0_1_STROKES" stroke="#FFFFFF" stroke-width="4.25" stroke-linejoin="bevel" stroke-linecap="butt" fill="none" d="M3.95 29.3L46.9 26 70.8 66"/><animate attributeName="display" repeatCount="indefinite" dur="2s" keyTimes="0;.688;.708;1" values="none;inline;none;none"/></g><g display="none"><path id="Layer91_0_1_STROKES" stroke="#FFFFFF" stroke-width="4.25" stroke-linejoin="bevel" stroke-linecap="butt" fill="none" d="M3.95 29.35L45.55 22.5 70.8 66.05"/><animate attributeName="display" repeatCount="indefinite" dur="2s" keyTimes="0;.667;.688;1" values="none;inline;none;none"/></g><g display="none"><path id="Layer90_0_1_STROKES" stroke="#FFFFFF" stroke-width="4.25" stroke-linejoin="bevel" stroke-linecap="butt" fill="none" d="M3.95 29.35L44.2 19 70.8 66.05"/><animate attributeName="display" repeatCount="indefinite" dur="2s" keyTimes="0;.646;.667;1" values="none;inline;none;none"/></g><g display="none"><path id="Layer89_0_1_STROKES" stroke="#FFFFFF" stroke-width="4.25" stroke-linejoin="bevel" stroke-linecap="butt" fill="none" d="M3.95 29.35L46.25 22.15 70.8 66.05"/><animate attributeName="display" repeatCount="indefinite" dur="2s" keyTimes="0;.625;.646;1" values="none;inline;none;none"/></g><g display="none"><path id="Layer88_0_1_STROKES" stroke="#FFFFFF" stroke-width="4.25" stroke-linejoin="bevel" stroke-linecap="butt" fill="none" d="M3.95 29.3L48.25 25.2 70.8 66"/><animate attributeName="display" repeatCount="indefinite" dur="2s" keyTimes="0;.604;.625;1" values="none;inline;none;none"/></g><g display="none"><path id="Layer87_0_1_STROKES" stroke="#FFFFFF" stroke-width="4.25" stroke-linejoin="bevel" stroke-linecap="butt" fill="none" d="M3.95 29.35L50.3 28.4 70.8 66.05"/><animate attributeName="display" repeatCount="indefinite" dur="2s" keyTimes="0;.583;.604;1" values="none;inline;none;none"/></g><g display="none"><path id="Layer86_0_1_STROKES" stroke="#FFFFFF" stroke-width="4.25" stroke-linejoin="bevel" stroke-linecap="butt" fill="none" d="M3.95 29.35L52.35 31.5 70.8 66.05"/><animate attributeName="display" repeatCount="indefinite" dur="2s" keyTimes="0;.563;.583;1" values="none;inline;none;none"/></g><g display="none"><path id="Layer85_0_1_STROKES" stroke="#FFFFFF" stroke-width="4.25" stroke-linejoin="bevel" stroke-linecap="butt" fill="none" d="M3.95 29.35L54.35 34.65 70.8 66.05"/><animate attributeName="display" repeatCount="indefinite" dur="2s" keyTimes="0;.542;.563;1" values="none;inline;none;none"/></g><g display="none"><path id="Layer84_0_1_STROKES" stroke="#FFFFFF" stroke-width="4.25" stroke-linejoin="bevel" stroke-linecap="butt" fill="none" d="M3.95 29.35L56.4 37.75 70.8 66.05"/><animate attributeName="display" repeatCount="indefinite" dur="2s" keyTimes="0;.521;.542;1" values="none;inline;none;none"/></g><g display="none"><path id="Layer83_0_1_STROKES" stroke="#FFFFFF" stroke-width="4.25" stroke-linejoin="bevel" stroke-linecap="butt" fill="none" d="M3.95 29.35L58.4 40.9 70.8 66.05"/><animate attributeName="display" repeatCount="indefinite" dur="2s" keyTimes="0;.5;.521;1" values="none;inline;none;none"/></g><g display="none"><path id="Layer82_0_1_STROKES" stroke="#FFFFFF" stroke-width="4.25" stroke-linejoin="bevel" stroke-linecap="butt" fill="none" d="M3.95 29.35L60.45 44 70.8 66.05"/><animate attributeName="display" repeatCount="indefinite" dur="2s" keyTimes="0;.479;.5;1" values="none;inline;none;none"/></g><g display="none"><path id="Layer81_0_1_STROKES" stroke="#FFFFFF" stroke-width="4.25" stroke-linejoin="bevel" stroke-linecap="butt" fill="none" d="M3.95 29.35L62.85 39.9 70.8 66.05"/><animate attributeName="display" repeatCount="indefinite" dur="2s" keyTimes="0;.458;.479;1" values="none;inline;none;none"/></g><g display="none"><path id="Layer80_0_1_STROKES" stroke="#FFFFFF" stroke-width="4.25" stroke-linejoin="bevel" stroke-linecap="butt" fill="none" d="M3.95 29.35L65.3 35.8 70.8 66.05"/><animate attributeName="display" repeatCount="indefinite" dur="2s" keyTimes="0;.438;.458;1" values="none;inline;none;none"/></g><g display="none"><path id="Layer79_0_1_STROKES" stroke="#FFFFFF" stroke-width="4.25" stroke-linejoin="bevel" stroke-linecap="butt" fill="none" d="M3.95 29.35L67.7 31.65 70.8 66.05"/><animate attributeName="display" repeatCount="indefinite" dur="2s" keyTimes="0;.417;.438;1" values="none;inline;none;none"/></g><g display="none"><path id="Layer78_0_1_STROKES" stroke="#FFFFFF" stroke-width="4.25" stroke-linejoin="bevel" stroke-linecap="butt" fill="none" d="M3.95 29.3L70.1 27.5 70.8 66"/><animate attributeName="display" repeatCount="indefinite" dur="2s" keyTimes="0;.396;.417;1" values="none;inline;none;none"/></g><g display="none"><path id="Layer77_0_1_STROKES" stroke="#FFFFFF" stroke-width="4.25" stroke-linejoin="bevel" stroke-linecap="butt" fill="none" d="M3.95 29.35L72.5 23.45 70.8 66.05"/><animate attributeName="display" repeatCount="indefinite" dur="2s" keyTimes="0;.375;.396;1" values="none;inline;none;none"/></g><g display="none"><path id="Layer76_0_1_STROKES" stroke="#FFFFFF" stroke-width="4.25" stroke-linejoin="bevel" stroke-linecap="butt" fill="none" d="M3.95 29.35L74.95 19.35 70.8 66.05"/><animate attributeName="display" repeatCount="indefinite" dur="2s" keyTimes="0;.354;.375;1" values="none;inline;none;none"/></g><g display="none"><path id="Layer75_0_1_STROKES" stroke="#FFFFFF" stroke-width="4.25" stroke-linejoin="bevel" stroke-linecap="butt" fill="none" d="M3.95 29.35L77.35 15.2 70.8 66.05"/><animate attributeName="display" repeatCount="indefinite" dur="2s" keyTimes="0;.333;.354;1" values="none;inline;none;none"/></g><g display="none"><path id="Layer74_0_1_STROKES" stroke="#FFFFFF" stroke-width="4.25" stroke-linejoin="bevel" stroke-linecap="butt" fill="none" d="M3.95 29.3L79.75 11.05 70.8 66"/><animate attributeName="display" repeatCount="indefinite" dur="2s" keyTimes="0;.313;.333;1" values="none;inline;none;none"/></g><g display="none"><path id="Layer73_0_1_STROKES" stroke="#FFFFFF" stroke-width="4.25" stroke-linejoin="bevel" stroke-linecap="butt" fill="none" d="M3.95 29.35L75.85 16.15 70.8 66.05"/><animate attributeName="display" repeatCount="indefinite" dur="2s" keyTimes="0;.292;.313;1" values="none;inline;none;none"/></g><g display="none"><path id="Layer72_0_1_STROKES" stroke="#FFFFFF" stroke-width="4.25" stroke-linejoin="bevel" stroke-linecap="butt" fill="none" d="M3.95 29.35L71.95 21.2 70.8 66.05"/><animate attributeName="display" repeatCount="indefinite" dur="2s" keyTimes="0;.271;.292;1" values="none;inline;none;none"/></g><g display="none"><path id="Layer71_0_1_STROKES" stroke="#FFFFFF" stroke-width="4.25" stroke-linejoin="bevel" stroke-linecap="butt" fill="none" d="M3.95 29.3L68.05 26.2 70.8 66"/><animate attributeName="display" repeatCount="indefinite" dur="2s" keyTimes="0;.25;.271;1" values="none;inline;none;none"/></g><g display="none"><path id="Layer70_0_1_STROKES" stroke="#FFFFFF" stroke-width="4.25" stroke-linejoin="bevel" stroke-linecap="butt" fill="none" d="M3.95 29.35L64.15 31.3 70.8 66.05"/><animate attributeName="display" repeatCount="indefinite" dur="2s" keyTimes="0;.229;.25;1" values="none;inline;none;none"/></g><g display="none"><path id="Layer69_0_1_STROKES" stroke="#FFFFFF" stroke-width="4.25" stroke-linejoin="bevel" stroke-linecap="butt" fill="none" d="M3.95 29.35L60.25 36.35 70.8 66.05"/><animate attributeName="display" repeatCount="indefinite" dur="2s" keyTimes="0;.208;.229;1" values="none;inline;none;none"/></g><g display="none"><path id="Layer68_0_1_STROKES" stroke="#FFFFFF" stroke-width="4.25" stroke-linejoin="bevel" stroke-linecap="butt" fill="none" d="M3.95 29.35L56.35 41.4 70.8 66.05"/><animate attributeName="display" repeatCount="indefinite" dur="2s" keyTimes="0;.188;.208;1" values="none;inline;none;none"/></g><g display="none"><path id="Layer67_0_1_STROKES" stroke="#FFFFFF" stroke-width="4.25" stroke-linejoin="bevel" stroke-linecap="butt" fill="none" d="M3.95 29.35L52.45 46.45 70.8 66.05"/><animate attributeName="display" repeatCount="indefinite" dur="2s" keyTimes="0;.167;.188;1" values="none;inline;none;none"/></g><g display="none"><path id="Layer66_0_1_STROKES" stroke="#FFFFFF" stroke-width="4.25" stroke-linejoin="bevel" stroke-linecap="butt" fill="none" d="M3.95 29.35L52.8 48 70.8 66.05"/><animate attributeName="display" repeatCount="indefinite" dur="2s" keyTimes="0;.146;.167;1" values="none;inline;none;none"/></g><g display="none"><path id="Layer65_0_1_STROKES" stroke="#FFFFFF" stroke-width="4.25" stroke-linejoin="bevel" stroke-linecap="butt" fill="none" d="M3.95 29.35L53.15 49.6 70.8 66.05"/><animate attributeName="display" repeatCount="indefinite" dur="2s" keyTimes="0;.125;.146;1" values="none;inline;none;none"/></g><g display="none"><path id="Layer64_0_1_STROKES" stroke="#FFFFFF" stroke-width="4.25" stroke-linejoin="bevel" stroke-linecap="butt" fill="none" d="M3.95 29.35L53.45 51.15 70.8 66.05"/><animate attributeName="display" repeatCount="indefinite" dur="2s" keyTimes="0;.104;.125;1" values="none;inline;none;none"/></g><g display="none"><path id="Layer63_0_1_STROKES" stroke="#FFFFFF" stroke-width="4.25" stroke-linejoin="bevel" stroke-linecap="butt" fill="none" d="M3.95 29.35L53.8 52.7 70.8 66.05"/><animate attributeName="display" repeatCount="indefinite" dur="2s" keyTimes="0;.083;.104;1" values="none;inline;none;none"/></g><g display="none"><path id="Layer62_0_1_STROKES" stroke="#FFFFFF" stroke-width="4.25" stroke-linejoin="bevel" stroke-linecap="butt" fill="none" d="M3.95 29.35L54.15 54.25 70.8 66.05"/><animate attributeName="display" repeatCount="indefinite" dur="2s" keyTimes="0;.063;.083;1" values="none;inline;none;none"/></g><g display="none"><path id="Layer61_0_1_STROKES" stroke="#FFFFFF" stroke-width="4.25" stroke-linejoin="bevel" stroke-linecap="butt" fill="none" d="M3.95 29.35L54.5 55.85 70.8 66.05"/><animate attributeName="display" repeatCount="indefinite" dur="2s" keyTimes="0;.042;.063;1" values="none;inline;none;none"/></g><g display="none"><path id="Layer60_0_1_STROKES" stroke="#FFFFFF" stroke-width="4.25" stroke-linejoin="bevel" stroke-linecap="butt" fill="none" d="M3.95 29.35L70.8 66.05"/><animate attributeName="display" repeatCount="indefinite" dur="2s" keyTimes="0;.021;.042;.958;.979;1" values="none;inline;none;inline;none;none"/></g><g><path id="Layer59_0_1_STROKES" stroke="#FFFFFF" stroke-width="4.25" stroke-linejoin="bevel" stroke-linecap="butt" fill="none" d="M3.95 29.35L55.15 58.95 70.8 66.05"/><animate attributeName="display" repeatCount="indefinite" dur="2s" keyTimes="0;.021;1" values="inline;none;none"/></g><g display="none"><path id="Layer58_0_1_STROKES" stroke="#FFFFFF" stroke-width="4.25" stroke-linejoin="bevel" stroke-linecap="butt" fill="none" d="M11.55 58.95L79.75 11.1 86.2 66.1"/><animate attributeName="display" repeatCount="indefinite" dur="2s" keyTimes="0;.979;1" values="none;inline;inline"/></g><g display="none"><path id="Layer57_0_1_STROKES" stroke="#FFFFFF" stroke-width="4.25" stroke-linejoin="bevel" stroke-linecap="butt" fill="none" d="M11.55 58.95L78.2 10.85 86.2 66.1"/><animate attributeName="display" repeatCount="indefinite" dur="2s" keyTimes="0;.958;.979;1" values="none;inline;none;none"/></g><g display="none"><path id="Layer56_0_1_STROKES" stroke="#FFFFFF" stroke-width="4.25" stroke-linejoin="bevel" stroke-linecap="butt" fill="none" d="M11.55 58.95L76.6 10.6 86.2 66.1"/><animate attributeName="display" repeatCount="indefinite" dur="2s" keyTimes="0;.938;.958;1" values="none;inline;none;none"/></g><g display="none"><path id="Layer55_0_1_STROKES" stroke="#FFFFFF" stroke-width="4.25" stroke-linejoin="bevel" stroke-linecap="butt" fill="none" d="M11.55 58.95L75.05 10.35 86.2 66.1"/><animate attributeName="display" repeatCount="indefinite" dur="2s" keyTimes="0;.917;.938;1" values="none;inline;none;none"/></g><g display="none"><path id="Layer54_0_1_STROKES" stroke="#FFFFFF" stroke-width="4.25" stroke-linejoin="bevel" stroke-linecap="butt" fill="none" d="M11.55 58.95L73.5 10.15 86.2 66.1"/><animate attributeName="display" repeatCount="indefinite" dur="2s" keyTimes="0;.896;.917;1" values="none;inline;none;none"/></g><g display="none"><path id="Layer53_0_1_STROKES" stroke="#FFFFFF" stroke-width="4.25" stroke-linejoin="bevel" stroke-linecap="butt" fill="none" d="M11.55 58.95L71.9 9.9 86.2 66.1"/><animate attributeName="display" repeatCount="indefinite" dur="2s" keyTimes="0;.875;.896;1" values="none;inline;none;none"/></g><g display="none"><path id="Layer52_0_1_STROKES" stroke="#FFFFFF" stroke-width="4.25" stroke-linejoin="bevel" stroke-linecap="butt" fill="none" d="M11.55 58.95L70.35 9.65 86.2 66.1"/><animate attributeName="display" repeatCount="indefinite" dur="2s" keyTimes="0;.854;.875;1" values="none;inline;none;none"/></g><g display="none"><path id="Layer51_0_1_STROKES" stroke="#FFFFFF" stroke-width="4.25" stroke-linejoin="bevel" stroke-linecap="butt" fill="none" d="M11.55 58.95L68.75 9.4 86.2 66.1"/><animate attributeName="display" repeatCount="indefinite" dur="2s" keyTimes="0;.833;.854;1" values="none;inline;none;none"/></g><g display="none"><path id="Layer50_0_1_STROKES" stroke="#FFFFFF" stroke-width="4.25" stroke-linejoin="bevel" stroke-linecap="butt" fill="none" d="M11.55 58.95L67.2 9.15 86.2 66.1"/><animate attributeName="display" repeatCount="indefinite" dur="2s" keyTimes="0;.813;.833;1" values="none;inline;none;none"/></g><g display="none"><path id="Layer49_0_1_STROKES" stroke="#FFFFFF" stroke-width="4.25" stroke-linejoin="bevel" stroke-linecap="butt" fill="none" d="M11.55 58.95L65.65 8.9 86.2 66.1"/><animate attributeName="display" repeatCount="indefinite" dur="2s" keyTimes="0;.792;.813;1" values="none;inline;none;none"/></g><g display="none"><path id="Layer48_0_1_STROKES" stroke="#FFFFFF" stroke-width="4.25" stroke-linejoin="bevel" stroke-linecap="butt" fill="none" d="M11.55 58.95L64.05 8.65 86.2 66.1"/><animate attributeName="display" repeatCount="indefinite" dur="2s" keyTimes="0;.771;.792;1" values="none;inline;none;none"/></g><g display="none"><path id="Layer47_0_1_STROKES" stroke="#FFFFFF" stroke-width="4.25" stroke-linejoin="bevel" stroke-linecap="butt" fill="none" d="M11.55 58.95L62.5 8.4 86.2 66.1"/><animate attributeName="display" repeatCount="indefinite" dur="2s" keyTimes="0;.75;.771;1" values="none;inline;none;none"/></g><g display="none"><path id="Layer46_0_1_STROKES" stroke="#FFFFFF" stroke-width="4.25" stroke-linejoin="bevel" stroke-linecap="butt" fill="none" d="M11.55 58.95L60.9 8.15 86.2 66.1"/><animate attributeName="display" repeatCount="indefinite" dur="2s" keyTimes="0;.729;.75;1" values="none;inline;none;none"/></g><g display="none"><path id="Layer45_0_1_STROKES" stroke="#FFFFFF" stroke-width="4.25" stroke-linejoin="bevel" stroke-linecap="butt" fill="none" d="M11.55 58.95L59.35 7.9 86.2 66.1"/><animate attributeName="display" repeatCount="indefinite" dur="2s" keyTimes="0;.708;.729;1" values="none;inline;none;none"/></g><g display="none"><path id="Layer44_0_1_STROKES" stroke="#FFFFFF" stroke-width="4.25" stroke-linejoin="bevel" stroke-linecap="butt" fill="none" d="M11.55 58.95L57.75 7.65 86.2 66.1"/><animate attributeName="display" repeatCount="indefinite" dur="2s" keyTimes="0;.688;.708;1" values="none;inline;none;none"/></g><g display="none"><path id="Layer43_0_1_STROKES" stroke="#FFFFFF" stroke-width="4.25" stroke-linejoin="bevel" stroke-linecap="butt" fill="none" d="M11.55 58.95L56.2 7.4 86.2 66.1"/><animate attributeName="display" repeatCount="indefinite" dur="2s" keyTimes="0;.667;.688;1" values="none;inline;none;none"/></g><g display="none"><path id="Layer42_0_1_STROKES" stroke="#FFFFFF" stroke-width="4.25" stroke-linejoin="bevel" stroke-linecap="butt" fill="none" d="M11.55 58.95L54.6 7.15 86.2 66.1"/><animate attributeName="display" repeatCount="indefinite" dur="2s" keyTimes="0;.646;.667;1" values="none;inline;none;none"/></g><g display="none"><path id="Layer41_0_1_STROKES" stroke="#FFFFFF" stroke-width="4.25" stroke-linejoin="bevel" stroke-linecap="butt" fill="none" d="M11.55 58.9L55.35 11.7 86.2 66.05"/><animate attributeName="display" repeatCount="indefinite" dur="2s" keyTimes="0;.625;.646;1" values="none;inline;none;none"/></g><g display="none"><path id="Layer40_0_1_STROKES" stroke="#FFFFFF" stroke-width="4.25" stroke-linejoin="bevel" stroke-linecap="butt" fill="none" d="M11.55 58.95L56.05 16.35 86.2 66.1"/><animate attributeName="display" repeatCount="indefinite" dur="2s" keyTimes="0;.604;.625;1" values="none;inline;none;none"/></g><g display="none"><path id="Layer39_0_1_STROKES" stroke="#FFFFFF" stroke-width="4.25" stroke-linejoin="bevel" stroke-linecap="butt" fill="none" d="M11.55 58.95L56.8 20.95 86.2 66.1"/><animate attributeName="display" repeatCount="indefinite" dur="2s" keyTimes="0;.583;.604;1" values="none;inline;none;none"/></g><g display="none"><path id="Layer38_0_1_STROKES" stroke="#FFFFFF" stroke-width="4.25" stroke-linejoin="bevel" stroke-linecap="butt" fill="none" d="M11.55 58.95L57.55 25.6 86.2 66.1"/><animate attributeName="display" repeatCount="indefinite" dur="2s" keyTimes="0;.563;.583;1" values="none;inline;none;none"/></g><g display="none"><path id="Layer37_0_1_STROKES" stroke="#FFFFFF" stroke-width="4.25" stroke-linejoin="bevel" stroke-linecap="butt" fill="none" d="M11.55 58.9L58.25 30.15 86.2 66.05"/><animate attributeName="display" repeatCount="indefinite" dur="2s" keyTimes="0;.542;.563;1" values="none;inline;none;none"/></g><g display="none"><path id="Layer36_0_1_STROKES" stroke="#FFFFFF" stroke-width="4.25" stroke-linejoin="bevel" stroke-linecap="butt" fill="none" d="M11.55 58.95L59 34.8 86.2 66.1"/><animate attributeName="display" repeatCount="indefinite" dur="2s" keyTimes="0;.521;.542;1" values="none;inline;none;none"/></g><g display="none"><path id="Layer35_0_1_STROKES" stroke="#FFFFFF" stroke-width="4.25" stroke-linejoin="bevel" stroke-linecap="butt" fill="none" d="M11.55 58.95L59.7 39.4 86.2 66.1"/><animate attributeName="display" repeatCount="indefinite" dur="2s" keyTimes="0;.5;.521;1" values="none;inline;none;none"/></g><g display="none"><path id="Layer34_0_1_STROKES" stroke="#FFFFFF" stroke-width="4.25" stroke-linejoin="bevel" stroke-linecap="butt" fill="none" d="M11.55 58.9L60.45 43.95 86.2 66.05"/><animate attributeName="display" repeatCount="indefinite" dur="2s" keyTimes="0;.479;.5;1" values="none;inline;none;none"/></g><g display="none"><path id="Layer33_0_1_STROKES" stroke="#FFFFFF" stroke-width="4.25" stroke-linejoin="bevel" stroke-linecap="butt" fill="none" d="M11.55 58.95L56 38.85 86.2 66.1"/><animate attributeName="display" repeatCount="indefinite" dur="2s" keyTimes="0;.458;.479;1" values="none;inline;none;none"/></g><g display="none"><path id="Layer32_0_1_STROKES" stroke="#FFFFFF" stroke-width="4.25" stroke-linejoin="bevel" stroke-linecap="butt" fill="none" d="M11.55 58.95L51.55 33.7 86.2 66.1"/><animate attributeName="display" repeatCount="indefinite" dur="2s" keyTimes="0;.438;.458;1" values="none;inline;none;none"/></g><g display="none"><path id="Layer31_0_1_STROKES" stroke="#FFFFFF" stroke-width="4.25" stroke-linejoin="bevel" stroke-linecap="butt" fill="none" d="M11.55 58.9L47.1 28.5 86.2 66.05"/><animate attributeName="display" repeatCount="indefinite" dur="2s" keyTimes="0;.417;.438;1" values="none;inline;none;none"/></g><g display="none"><path id="Layer30_0_1_STROKES" stroke="#FFFFFF" stroke-width="4.25" stroke-linejoin="bevel" stroke-linecap="butt" fill="none" d="M11.55 58.95L42.7 23.45 86.2 66.1"/><animate attributeName="display" repeatCount="indefinite" dur="2s" keyTimes="0;.396;.417;1" values="none;inline;none;none"/></g><g display="none"><path id="Layer29_0_1_STROKES" stroke="#FFFFFF" stroke-width="4.25" stroke-linejoin="bevel" stroke-linecap="butt" fill="none" d="M11.55 58.95L38.25 18.3 86.2 66.1"/><animate attributeName="display" repeatCount="indefinite" dur="2s" keyTimes="0;.375;.396;1" values="none;inline;none;none"/></g><g display="none"><path id="Layer28_0_1_STROKES" stroke="#FFFFFF" stroke-width="4.25" stroke-linejoin="bevel" stroke-linecap="butt" fill="none" d="M11.55 58.95L33.8 13.15 86.2 66.1"/><animate attributeName="display" repeatCount="indefinite" dur="2s" keyTimes="0;.354;.375;1" values="none;inline;none;none"/></g><g display="none"><path id="Layer27_0_1_STROKES" stroke="#FFFFFF" stroke-width="4.25" stroke-linejoin="bevel" stroke-linecap="butt" fill="none" d="M11.55 58.9L29.35 7.95 86.2 66.05"/><animate attributeName="display" repeatCount="indefinite" dur="2s" keyTimes="0;.333;.354;1" values="none;inline;none;none"/></g><g display="none"><path id="Layer26_0_1_STROKES" stroke="#FFFFFF" stroke-width="4.25" stroke-linejoin="bevel" stroke-linecap="butt" fill="none" d="M11.55 59L24.9 2.9 86.2 66.15"/><animate attributeName="display" repeatCount="indefinite" dur="2s" keyTimes="0;.313;.333;1" values="none;inline;none;none"/></g><g display="none"><path id="Layer25_0_1_STROKES" stroke="#FFFFFF" stroke-width="4.25" stroke-linejoin="bevel" stroke-linecap="butt" fill="none" d="M11.55 58.95L30 5.95 86.2 66.1"/><animate attributeName="display" repeatCount="indefinite" dur="2s" keyTimes="0;.292;.313;1" values="none;inline;none;none"/></g><g display="none"><path id="Layer24_0_1_STROKES" stroke="#FFFFFF" stroke-width="4.25" stroke-linejoin="bevel" stroke-linecap="butt" fill="none" d="M11.55 58.95L35.15 9 86.2 66.1"/><animate attributeName="display" repeatCount="indefinite" dur="2s" keyTimes="0;.271;.292;1" values="none;inline;none;none"/></g><g display="none"><path id="Layer23_0_1_STROKES" stroke="#FFFFFF" stroke-width="4.25" stroke-linejoin="bevel" stroke-linecap="butt" fill="none" d="M11.55 59L40.25 12.15 86.2 66.15"/><animate attributeName="display" repeatCount="indefinite" dur="2s" keyTimes="0;.25;.271;1" values="none;inline;none;none"/></g><g display="none"><path id="Layer22_0_1_STROKES" stroke="#FFFFFF" stroke-width="4.25" stroke-linejoin="bevel" stroke-linecap="butt" fill="none" d="M11.55 58.9L45.35 15.15 86.2 66.05"/><animate attributeName="display" repeatCount="indefinite" dur="2s" keyTimes="0;.229;.25;1" values="none;inline;none;none"/></g><g display="none"><path id="Layer21_0_1_STROKES" stroke="#FFFFFF" stroke-width="4.25" stroke-linejoin="bevel" stroke-linecap="butt" fill="none" d="M11.55 58.95L50.45 18.3 86.2 66.1"/><animate attributeName="display" repeatCount="indefinite" dur="2s" keyTimes="0;.208;.229;1" values="none;inline;none;none"/></g><g display="none"><path id="Layer20_0_1_STROKES" stroke="#FFFFFF" stroke-width="4.25" stroke-linejoin="bevel" stroke-linecap="butt" fill="none" d="M11.55 58.95L55.6 21.35 86.2 66.1"/><animate attributeName="display" repeatCount="indefinite" dur="2s" keyTimes="0;.188;.208;1" values="none;inline;none;none"/></g><g display="none"><path id="Layer19_0_1_STROKES" stroke="#FFFFFF" stroke-width="4.25" stroke-linejoin="bevel" stroke-linecap="butt" fill="none" d="M11.55 58.95L60.7 24.45 86.2 66.1"/><animate attributeName="display" repeatCount="indefinite" dur="2s" keyTimes="0;.167;.188;1" values="none;inline;none;none"/></g><g display="none"><path id="Layer18_0_1_STROKES" stroke="#FFFFFF" stroke-width="4.25" stroke-linejoin="bevel" stroke-linecap="butt" fill="none" d="M11.55 58.95L63.1 22.8 86.2 66.1"/><animate attributeName="display" repeatCount="indefinite" dur="2s" keyTimes="0;.146;.167;1" values="none;inline;none;none"/></g><g display="none"><path id="Layer17_0_1_STROKES" stroke="#FFFFFF" stroke-width="4.25" stroke-linejoin="bevel" stroke-linecap="butt" fill="none" d="M11.55 58.95L65.45 21.1 86.2 66.1"/><animate attributeName="display" repeatCount="indefinite" dur="2s" keyTimes="0;.125;.146;1" values="none;inline;none;none"/></g><g display="none"><path id="Layer16_0_1_STROKES" stroke="#FFFFFF" stroke-width="4.25" stroke-linejoin="bevel" stroke-linecap="butt" fill="none" d="M11.55 58.95L67.85 19.45 86.2 66.1"/><animate attributeName="display" repeatCount="indefinite" dur="2s" keyTimes="0;.104;.125;1" values="none;inline;none;none"/></g><g display="none"><path id="Layer15_0_1_STROKES" stroke="#FFFFFF" stroke-width="4.25" stroke-linejoin="bevel" stroke-linecap="butt" fill="none" d="M11.55 58.95L70.25 17.8 86.2 66.1"/><animate attributeName="display" repeatCount="indefinite" dur="2s" keyTimes="0;.083;.104;1" values="none;inline;none;none"/></g><g display="none"><path id="Layer14_0_1_STROKES" stroke="#FFFFFF" stroke-width="4.25" stroke-linejoin="bevel" stroke-linecap="butt" fill="none" d="M11.55 58.95L72.6 16.1 86.2 66.1"/><animate attributeName="display" repeatCount="indefinite" dur="2s" keyTimes="0;.063;.083;1" values="none;inline;none;none"/></g><g display="none"><path id="Layer13_0_1_STROKES" stroke="#FFFFFF" stroke-width="4.25" stroke-linejoin="bevel" stroke-linecap="butt" fill="none" d="M11.55 58.95L75 14.45 86.2 66.1"/><animate attributeName="display" repeatCount="indefinite" dur="2s" keyTimes="0;.042;.063;1" values="none;inline;none;none"/></g><g display="none"><path id="Layer12_0_1_STROKES" stroke="#FFFFFF" stroke-width="4.25" stroke-linejoin="bevel" stroke-linecap="butt" fill="none" d="M11.55 58.95L77.35 12.75 86.2 66.1"/><animate attributeName="display" repeatCount="indefinite" dur="2s" keyTimes="0;.021;.042;1" values="none;inline;none;none"/></g><g><path id="Layer11_0_1_STROKES" stroke="#FFFFFF" stroke-width="4.25" stroke-linejoin="bevel" stroke-linecap="butt" fill="none" d="M11.55 59L79.75 11.15 86.2 66.15"/><animate attributeName="display" repeatCount="indefinite" dur="2s" keyTimes="0;.021;1" values="inline;none;none"/></g><g display="none" id="Layer6_0_FILL"><path fill="#FFFFFF" stroke="none" d="M138.25 21.45L125.45 21.45 125.45 60.65 130.7 60.65 130.7 46.55 138.25 46.55Q138.657 46.55 139.05 46.5L149.55 60.65 155.95 60.65 144.55 45.65Q145.151 45.466 145.7 45.25 148.85 43.95 150.65 41.3 152.45 38.7 152.45 34.4L152.45 33.55Q152.45 29.4 150.7 26.65 148.85 23.95 145.7 22.7 142.6 21.45 138.25 21.45M139.2 41.9L130.7 41.9 130.7 26 139.2 26Q141.7 26 143.4 27.05 145.15 28.1 146.15 29.9 147.1 31.65 147.1 34 147.1 36.35 146.15 38.05 145.15 39.85 143.4 40.9 141.65 41.9 139.2 41.9Z"/><path fill="#FFFFFF" stroke="none" d="M168.2 21.65L163 21.65 163 60.65 168.2 60.65 168.2 21.65Z"/><path fill="#FFFFFF" stroke="none" d="M217.55 21.65L210.55 21.65 199.05 47.65 198.2 47.65 186.65 21.65 179.7 21.65 179.7 60.65 184.5 60.65 184.5 28.35 195.2 52.6 201.6 52.6 212.3 28.35 212.3 60.65 217.55 60.65 217.55 21.65Z"/><path fill="#FFFFFF" stroke="none" d="M256.65 60.65L262.05 60.65 247.6 21.65 238.7 21.65 224.65 60.65 229.9 60.65 234.05 49 252.35 49 256.65 60.65M244 26.35L250.65 44.3 235.7 44.3 242.1 26.35 244 26.35Z"/><path fill="#FFFFFF" stroke="none" d="M295.75 33.85Q295.75 30.05 294.1 27.25 292.35 24.4 289.2 22.95 286 21.45 281.15 21.45L269.2 21.45 269.2 60.65 274.45 60.65 274.45 47.1 281.15 47.1Q285.85 47.1 289.2 45.55 292.35 44.1 294.1 41.25 295.75 38.4 295.75 34.7L295.75 33.85M289.45 38.4Q288.55 40.25 286.7 41.4 284.8 42.5 282.1 42.5L274.45 42.5 274.45 26 282.1 26Q284.8 26 286.7 27.1 288.55 28.2 289.45 30.05 290.4 31.9 290.4 34.25 290.4 36.65 289.45 38.4Z"/><animate attributeName="display" repeatCount="indefinite" dur="2s" keyTimes="0;.979;1" values="none;inline;inline"/></g><g id="Layer1_0_FILL"><path fill="#FFFFFF" stroke="none" d="M138.2 21.45L125.4 21.45 125.4 60.65 130.65 60.65 130.65 46.55 138.2 46.55Q138.6 46.55 139 46.55L149.5 60.65 155.9 60.65 144.55 45.65Q145.1 45.45 145.65 45.25 148.8 43.95 150.6 41.3 152.4 38.7 152.4 34.4L152.4 33.55Q152.4 29.4 150.65 26.65 148.8 23.95 145.65 22.7 142.55 21.45 138.2 21.45M139.15 41.9L130.65 41.9 130.65 26 139.15 26Q141.65 26 143.35 27.05 145.1 28.1 146.1 29.9 147.05 31.65 147.05 34 147.05 36.35 146.1 38.05 145.1 39.85 143.35 40.9 141.6 41.9 139.15 41.9Z"/><path fill="#FFFFFF" stroke="none" d="M168.2 21.65L163 21.65 163 60.65 168.2 60.65 168.2 21.65Z"/><path fill="#FFFFFF" stroke="none" d="M217.5 21.65L210.5 21.65 199 47.65 198.15 47.65 186.6 21.65 179.65 21.65 179.65 60.65 184.45 60.65 184.45 28.35 195.15 52.6 201.55 52.6 212.25 28.35 212.25 60.65 217.5 60.65 217.5 21.65Z"/><path fill="#FFFFFF" stroke="none" d="M256.6 60.65L262 60.65 247.55 21.65 238.65 21.65 224.6 60.65 229.85 60.65 234 49 252.35 49 256.6 60.65M244 26.35L250.6 44.3 235.7 44.3 242.05 26.35 244 26.35Z"/><path fill="#FFFFFF" stroke="none" d="M295.7 33.85Q295.7 30.05 294.05 27.25 292.3 24.4 289.15 22.95 285.95 21.45 281.1 21.45L269.15 21.45 269.15 60.65 274.4 60.65 274.4 47.1 281.1 47.1Q285.8 47.1 289.15 45.55 292.3 44.1 294.05 41.25 295.7 38.4 295.7 34.7L295.7 33.85M289.4 30.05Q290.35 31.9 290.35 34.25 290.35 36.65 289.4 38.4 288.5 40.25 286.65 41.4 284.75 42.5 282.05 42.5L274.4 42.5 274.4 26 282.05 26Q284.75 26 286.65 27.1 288.5 28.2 289.4 30.05Z"/><animate attributeName="display" repeatCount="indefinite" dur="2s" keyTimes="0;.979;1" values="inline;none;none"/></g></g></svg>