<svg id="Layer_1" data-name="Layer 1" image-rendering="auto" baseProfile="basic" version="1.1" preserveAspectRatio="xMidYMid meet" x="0px" y="0px" width="297" height="83" xmlns="http://www.w3.org/2000/svg" viewBox="0 0 297 83" xmlns:xlink="http://www.w3.org/1999/xlink">
  <g>
    <path id="logoMark" d="M22.4023,0,0,28.2686,8.2832,60.4834H51.3848V81.9453l18.5439-14.332,15.8643.0351L99.708,43.3809,79.4326,8.584ZM59.2642,58.6356,80.751,51.2833l1.4209,12.1048L69.6663,63.36Zm-4.7369-2.8729-10.2-18.9352L76.4121,14.3213l3.8316,32.6412ZM42.2964,33.0583,27.1919,5.02l45.3459,6.8253ZM38.7913,35.517,29.512,42.0261,5.5176,28.153,22.9634,6.1372Zm2.0305,3.769,7.2607,13.4774L33.57,44.3726Zm4.7636,16.9454H16.6641l13.0676-9.1662Zm39.2813-6.3565,7.7327-2.646L85.9229,58.8726Zm-.5073-4.3208-2.95-25.131,12.6985,21.795ZM5.6428,33.1378l20.0305,11.581L11.2256,54.8531ZM55.6367,61.6494,65.1143,65.96l-9.4776,7.3252Z" style="fill: #fff"/>
    <g id="type">
      <path id="type_CompoundPathItem_" data-name="type &lt;CompoundPathItem&gt;" d="M144.0723,44.6822a10.58,10.58,0,0,0,4.9707-3.9551,12.1552,12.1552,0,0,0,1.791-6.8935v-.8555a12.2959,12.2959,0,0,0-1.7637-6.8936A10.4074,10.4074,0,0,0,144.1,22.13a20.06,20.06,0,0,0-7.4824-1.2832H123.8447V60.0738h5.2373V45.9644h7.5352c.2756,0,.5317-.023.8008-.031l10.5293,14.14h6.3593l-11.361-15.01C143.3267,44.9429,143.7124,44.8275,144.0723,44.6822Zm-14.99-19.2393H137.58a8.1567,8.1567,0,0,1,4.2207,1.042,7.1916,7.1916,0,0,1,2.7265,2.8321,9.177,9.177,0,0,1,0,8.1767A7.0016,7.0016,0,0,1,141.8008,40.3,8.3246,8.3246,0,0,1,137.58,41.315H129.082Z" style="fill: #fff"/>
      <rect id="type_PathItem_" data-name="type &lt;PathItem&gt;" x="161.3613" y="21.0601" width="5.2373" height="39.0137" style="fill: #fff"/>
      <polygon id="type_PathItem_2" data-name="type &lt;PathItem&gt;" points="197.381 47.087 196.526 47.087 184.982 21.06 178.035 21.06 178.035 60.074 182.845 60.074 182.845 27.85 193.533 52.003 199.947 52.003 210.635 27.737 210.635 60.074 215.873 60.074 215.873 21.06 208.871 21.06 197.381 47.087" style="fill: #fff"/>
      <path id="type_CompoundPathItem_2" data-name="type &lt;CompoundPathItem&gt;" d="M237.09,21.06,223.0342,60.0738h5.2373l4.146-11.65H250.761l4.2859,11.65h5.3965L245.9609,21.06Zm-2.9987,22.66,6.39-17.9571h1.9436l6.606,17.9571Z" style="fill: #fff"/>
      <path id="type_CompoundPathItem_3" data-name="type &lt;CompoundPathItem&gt;" d="M292.457,26.6724a10.94,10.94,0,0,0-4.8906-4.3027,18.8343,18.8343,0,0,0-8.043-1.5234H267.6055V60.0738h5.2373V46.5h6.6806a18.8327,18.8327,0,0,0,8.043-1.5235,10.8839,10.8839,0,0,0,4.8906-4.3291A12.6414,12.6414,0,0,0,294.1133,34.1v-.8545A12.6084,12.6084,0,0,0,292.457,26.6724Zm-4.623,11.169a7.1185,7.1185,0,0,1-2.7529,2.9658,8.7709,8.7709,0,0,1-4.5967,1.0957h-7.6416v-16.46h7.6416a8.9629,8.9629,0,0,1,4.5967,1.0684,6.9736,6.9736,0,0,1,2.7529,2.9394,9.3243,9.3243,0,0,1,.9346,4.2227A9.1908,9.1908,0,0,1,287.834,37.8414Z" style="fill: #fff"/>
    </g>
  </g>
</svg>
