<?xml version="1.0" standalone="no"?>
<!DOCTYPE svg PUBLIC "-//W3C//DTD SVG 20010904//EN"
 "http://www.w3.org/TR/2001/REC-SVG-20010904/DTD/svg10.dtd">
<svg version="1.0" xmlns="http://www.w3.org/2000/svg"
 width="700.000000pt" height="700.000000pt" viewBox="0 0 700.000000 700.000000"
 preserveAspectRatio="xMidYMid meet">
<metadata>
Created by potrace 1.11, written by Peter Selinger 2001-2013
</metadata>
<g transform="translate(0.000000,700.000000) scale(0.100000,-0.100000)"
fill="#000000" stroke="none">
<path d="M1529 6173 c-148 -188 -248 -314 -350 -443 -228 -287 -464 -585 -471
-595 -4 -5 -18 -23 -32 -40 -13 -16 -130 -165 -260 -330 -131 -165 -245 -309
-254 -320 -10 -11 -48 -60 -86 -108 l-69 -88 73 -282 c40 -155 74 -289 76
-297 2 -8 17 -67 33 -130 29 -112 104 -402 231 -895 107 -417 149 -579 159
-615 l10 -35 1498 1 c824 0 1503 -1 1508 -3 7 -2 10 -256 10 -744 0 -407 3
-743 7 -745 5 -3 287 211 643 488 28 22 64 50 80 63 17 12 93 72 170 132 77
59 187 144 245 188 58 44 114 88 124 97 18 17 60 18 578 18 l558 0 23 37 c13
21 41 70 62 108 21 39 44 77 51 86 8 8 14 19 14 23 0 4 22 44 48 89 27 45 62
107 79 137 26 46 454 794 516 900 11 19 31 55 45 80 14 25 49 87 79 138 29 51
53 98 53 105 0 7 -16 38 -35 70 -19 32 -35 59 -35 61 0 2 -25 46 -56 97 -31
52 -67 112 -79 134 -12 22 -176 306 -364 630 -189 325 -402 691 -474 815 -362
624 -361 623 -390 631 -15 4 -49 10 -75 14 -26 4 -56 8 -67 10 -11 1 -42 6
-70 9 -27 4 -61 9 -75 11 -14 3 -38 7 -55 9 -55 8 -179 27 -270 41 -49 8 -108
17 -130 20 -23 3 -50 7 -61 9 -11 2 -47 8 -79 12 -33 4 -62 8 -65 9 -3 1 -30
5 -60 9 -30 5 -62 10 -71 11 -9 2 -40 6 -69 10 -29 4 -60 8 -69 10 -15 2 -77
12 -131 20 -22 4 -113 18 -190 30 -14 2 -50 7 -80 10 -30 4 -57 8 -60 10 -3 2
-27 6 -55 9 -27 4 -61 8 -75 11 -14 2 -42 7 -62 10 -21 3 -53 7 -70 10 -18 3
-80 12 -138 20 -58 9 -116 18 -130 20 -23 4 -458 69 -539 81 -20 3 -92 14
-161 24 -140 22 -456 69 -510 76 -19 3 -61 10 -93 15 -33 6 -73 12 -90 14 -18
2 -46 6 -63 9 -17 3 -47 8 -67 10 -20 3 -52 7 -69 10 -18 3 -51 8 -73 11 -22
3 -53 8 -70 11 -27 4 -35 -1 -76 -53z m484 -308 c27 -4 58 -8 70 -11 12 -2 39
-6 62 -9 22 -3 51 -8 65 -10 14 -2 43 -7 65 -10 35 -5 73 -11 205 -30 19 -3
64 -10 100 -16 36 -5 79 -12 95 -14 17 -2 73 -10 125 -19 52 -8 120 -18 150
-21 30 -4 57 -8 60 -10 3 -1 32 -6 65 -9 33 -4 67 -9 75 -11 8 -2 33 -6 55
-10 22 -3 54 -7 70 -10 17 -3 48 -7 70 -10 22 -3 51 -7 65 -10 14 -3 41 -7 60
-9 30 -4 269 -40 340 -51 30 -5 84 -13 170 -25 36 -6 81 -12 100 -15 19 -3 67
-10 105 -16 39 -5 113 -17 165 -25 96 -15 106 -17 193 -29 27 -4 59 -8 70 -11
12 -2 42 -6 67 -9 43 -5 71 -10 115 -19 12 -2 48 -8 80 -12 33 -4 62 -8 65 -9
3 -1 33 -5 68 -9 34 -4 62 -11 62 -14 0 -4 -145 -108 -321 -232 -176 -124
-329 -232 -339 -240 -11 -8 -49 -35 -85 -60 -36 -25 -107 -75 -158 -111 -50
-36 -283 -200 -517 -365 -234 -164 -429 -302 -435 -307 -28 -22 -240 -167
-245 -167 -3 0 -39 62 -79 138 -41 75 -89 164 -107 197 -47 88 -519 967 -567
1055 -77 145 -110 206 -137 255 -15 28 -51 95 -80 150 -29 55 -62 115 -72 133
l-20 33 28 -5 c16 -2 51 -7 77 -11z m-339 -180 c31 -57 68 -126 82 -152 47
-86 91 -167 134 -248 23 -44 50 -93 60 -110 10 -16 39 -70 65 -120 26 -49 60
-112 75 -140 15 -27 54 -99 87 -160 33 -60 78 -144 100 -185 72 -134 115 -214
143 -265 15 -27 43 -79 62 -115 19 -36 64 -119 100 -185 130 -239 139 -258
131 -265 -4 -4 -145 -103 -313 -220 -168 -117 -310 -217 -316 -221 -7 -6 -291
153 -755 422 -409 237 -760 440 -779 451 -19 11 -63 36 -97 56 l-62 36 33 40
c18 23 172 217 341 431 170 215 340 431 380 480 39 50 132 166 206 260 74 93
154 195 179 226 25 31 51 66 59 77 8 12 18 19 22 16 4 -2 32 -51 63 -109z
m3692 -493 c2 -9 6 -46 9 -82 3 -36 7 -76 10 -90 2 -14 7 -50 10 -80 3 -30 10
-89 15 -130 5 -41 12 -100 15 -130 6 -56 12 -108 20 -170 3 -19 7 -60 10 -90
4 -30 8 -66 10 -80 2 -14 6 -54 10 -90 4 -36 8 -76 10 -90 2 -14 7 -50 10 -80
3 -30 8 -66 10 -80 3 -14 7 -52 10 -85 2 -33 7 -71 10 -85 2 -14 7 -52 10 -85
3 -33 10 -94 15 -135 5 -41 12 -102 15 -135 4 -33 8 -71 10 -85 3 -23 8 -65
20 -167 3 -24 7 -62 10 -85 3 -24 7 -63 10 -88 3 -25 8 -59 10 -77 4 -34 -1
-38 -95 -67 -25 -8 -198 -67 -385 -131 -187 -64 -358 -123 -380 -130 -38 -12
-539 -184 -799 -274 -66 -23 -124 -41 -130 -41 -6 0 -38 51 -71 112 -33 62
-78 146 -101 188 -22 41 -62 116 -89 165 -73 137 -105 195 -135 250 -15 28
-46 86 -70 130 -23 44 -50 94 -60 110 -9 17 -42 77 -73 135 -31 58 -69 130
-86 160 -17 30 -31 60 -31 65 0 6 12 17 28 26 15 9 154 106 309 215 254 179
336 237 562 395 36 25 233 162 436 305 204 142 380 266 391 274 12 8 80 56
150 106 71 49 161 112 199 139 39 27 90 63 115 81 47 33 52 34 56 6z m372
-436 c9 -20 220 -385 282 -489 11 -18 27 -45 36 -62 9 -16 85 -147 169 -290
83 -143 163 -280 177 -305 14 -25 64 -110 111 -190 47 -80 82 -148 79 -151 -4
-3 -153 -55 -332 -114 -179 -59 -330 -110 -335 -112 -6 -2 -11 7 -12 19 -2 22
-19 169 -28 233 -2 17 -7 55 -10 85 -3 30 -7 71 -10 90 -2 19 -7 60 -10 90 -7
63 -13 120 -20 170 -3 19 -7 58 -10 85 -3 28 -7 66 -10 85 -7 58 -14 122 -20
180 -3 30 -10 89 -15 130 -5 41 -12 98 -15 125 -3 28 -7 64 -9 80 -2 17 -7 59
-11 95 -3 36 -8 76 -10 90 -2 14 -7 57 -11 95 -3 39 -8 73 -11 78 -2 4 0 7 5
7 5 0 14 -11 20 -24z m-5176 -940 c209 -122 887 -516 928 -539 237 -133 311
-180 298 -193 -7 -7 -130 -94 -273 -194 -143 -99 -267 -186 -275 -193 -8 -7
-51 -37 -95 -67 -44 -30 -84 -58 -90 -62 -5 -5 -53 -38 -105 -74 -52 -37 -107
-75 -123 -86 -20 -15 -28 -16 -31 -6 -29 101 -38 135 -200 768 -53 206 -116
452 -141 545 -46 175 -48 185 -40 185 2 0 68 -38 147 -84z m2341 -398 c19 -35
51 -93 71 -130 77 -145 110 -205 136 -253 15 -27 41 -75 57 -105 17 -30 69
-128 118 -218 48 -90 86 -164 84 -166 -2 -2 -121 65 -264 148 -143 83 -361
209 -485 280 -124 71 -231 134 -237 140 -10 9 16 31 108 96 66 47 128 91 137
98 16 12 235 170 239 171 1 1 17 -27 36 -61z m-512 -658 c160 -93 293 -170
295 -170 3 0 25 -13 49 -30 24 -16 46 -30 48 -30 3 0 63 -34 133 -76 71 -42
154 -90 184 -107 30 -16 64 -36 75 -43 16 -12 -138 -14 -990 -14 l-1009 0 54
38 c29 20 234 164 454 319 221 155 405 282 409 283 4 0 138 -76 298 -170z
m4053 83 c-21 -37 -43 -76 -49 -85 -5 -9 -17 -29 -26 -45 -8 -15 -85 -149
-171 -298 -85 -148 -160 -279 -165 -289 -9 -17 -11 -14 -17 20 -3 21 -8 68
-12 104 -3 36 -7 72 -9 80 -2 8 -6 49 -10 90 -3 41 -8 82 -10 90 -2 8 -6 47
-10 85 -3 39 -8 84 -11 101 -4 21 -1 35 8 40 17 11 512 181 517 178 2 -2 -14
-34 -35 -71z m-778 -231 c2 -9 6 -39 9 -67 2 -27 7 -68 10 -90 9 -78 16 -138
20 -184 3 -25 7 -62 10 -81 2 -19 7 -60 10 -90 3 -30 10 -89 15 -130 5 -41 12
-99 15 -127 l6 -53 -435 0 -435 0 -53 24 c-29 13 -125 56 -213 96 -88 40 -196
89 -240 109 -44 21 -110 51 -147 66 -38 16 -68 32 -68 35 0 4 35 18 78 33 102
35 570 196 747 257 77 26 212 73 300 103 88 30 205 71 260 90 55 19 102 33
104 30 3 -2 6 -11 7 -21z m-1673 -741 c38 -17 70 -31 72 -31 1 0 45 -20 96
-44 52 -24 135 -61 184 -84 50 -22 121 -54 159 -71 l69 -32 -24 -16 c-13 -9
-26 -19 -29 -22 -3 -4 -43 -35 -90 -70 -47 -36 -180 -137 -295 -226 -116 -88
-215 -164 -220 -167 -7 -4 -9 128 -8 380 1 445 1 425 11 419 4 -3 38 -19 75
-36z"/>
</g>
</svg>
