<?xml version="1.0" encoding="UTF-8"?>
<!DOCTYPE svg PUBLIC "-//W3C//DTD SVG 1.1//EN" "http://www.w3.org/Graphics/SVG/1.1/DTD/svg11.dtd">
<svg xmlns="http://www.w3.org/2000/svg" version="1.1" width="137px" height="43px" style="shape-rendering:geometricPrecision; text-rendering:geometricPrecision; image-rendering:optimizeQuality; fill-rule:evenodd; clip-rule:evenodd" xmlns:xlink="http://www.w3.org/1999/xlink">
<g><path style="opacity:1" fill="#1d6f85" d="M -0.5,-0.5 C 1.5,-0.5 3.5,-0.5 5.5,-0.5C 5.33352,9.50555 5.50019,19.5056 6,29.5C 7.57853,34.297 10.9119,36.9636 16,37.5C 20.5536,36.8914 23.887,34.5581 26,30.5C 26.4998,20.172 26.6665,9.83871 26.5,-0.5C 28.5,-0.5 30.5,-0.5 32.5,-0.5C 32.6665,10.8382 32.4999,22.1716 32,33.5C 30.1677,37.9842 27.001,40.9842 22.5,42.5C 18.1667,42.5 13.8333,42.5 9.5,42.5C 5.54423,40.2119 2.21089,37.2119 -0.5,33.5C -0.5,22.1667 -0.5,10.8333 -0.5,-0.5 Z"/></g>
<g><path style="opacity:1" fill="#2b6577" d="M 52.5,-0.5 C 56.5,-0.5 60.5,-0.5 64.5,-0.5C 69.3941,1.22399 72.8941,4.55732 75,9.5C 75.4998,20.495 75.6665,31.495 75.5,42.5C 73.1667,42.5 70.8333,42.5 68.5,42.5C 68.6665,31.8281 68.4998,21.1615 68,10.5C 65.962,7.13392 62.962,5.46726 59,5.5C 54.2684,5.1981 50.9351,7.1981 49,11.5C 48.5002,21.828 48.3335,32.1613 48.5,42.5C 46.1667,42.5 43.8333,42.5 41.5,42.5C 41.1128,30.7794 41.6128,19.1128 43,7.5C 45.3247,3.76521 48.4914,1.09854 52.5,-0.5 Z"/></g>
<g><path style="opacity:1" fill="#2c6678" d="M 88.5,-0.5 C 90.5,-0.5 92.5,-0.5 94.5,-0.5C 94.5,13.8333 94.5,28.1667 94.5,42.5C 92.1667,42.5 89.8333,42.5 87.5,42.5C 87.1844,28.0882 87.5178,13.7548 88.5,-0.5 Z"/></g>
<g><path style="opacity:1" fill="#2c6678" d="M 117.5,-0.5 C 119.5,-0.5 121.5,-0.5 123.5,-0.5C 123.5,1.5 123.5,3.5 123.5,5.5C 119.287,5.22015 116.12,6.88682 114,10.5C 113.5,21.1615 113.333,31.8281 113.5,42.5C 111.167,42.5 108.833,42.5 106.5,42.5C 106.333,31.495 106.5,20.495 107,9.5C 109.106,4.55732 112.606,1.22399 117.5,-0.5 Z"/></g>
<g><path style="opacity:1" fill="#0e738c" d="M 130.5,-0.5 C 132.5,-0.5 134.5,-0.5 136.5,-0.5C 136.5,13.8333 136.5,28.1667 136.5,42.5C 134.5,42.5 132.5,42.5 130.5,42.5C 130.5,28.1667 130.5,13.8333 130.5,-0.5 Z"/></g>
</svg>
