<svg xmlns="http://www.w3.org/2000/svg" width="137.229" height="43.286" viewBox="0 0 137.229 43.286"><path d="M113.489,1.1c-9.045,0-16.369,6.106-16.369,13.669v29.5h5.559V15.031c0-4.978,4.853-9.022,10.833-9.022V1.1Z" transform="translate(10.845 -0.986)" fill="#fff"/><path d="M32.31,1c-1.526,0-2.768.49-2.768,1.139h0v28.17c0,4.989-4.841,9.022-10.822,9.022S7.9,35.287,7.9,30.309h0V2.139h0C7.9,1.535,6.657,1,5.119,1S2.351,1.49,2.34,2.139h0V30.617c0,7.53,7.324,13.669,16.369,13.669s16.369-6.151,16.369-13.669V2.139c0-.6-1.242-1.139-2.768-1.139" transform="translate(-2.34 -1)" fill="#fff"/><path d="M45.513,44.275V15.034c0-4.978,4.853-9.022,10.822-9.022S67.168,10.1,67.168,15.034h0V44.275h5.547V14.749c0-7.53-7.324-13.669-16.369-13.669S40,7.208,40,14.749V44.275Z" transform="translate(2.899 -0.989)" fill="#fff"/><path d="M86.149,2.209c0-.615-1.242-1.139-2.779-1.139s-2.779.5-2.779,1.139h0V44.276h5.559V2.209Z" transform="translate(8.545 -0.99)" fill="#fff"/><path d="M123.489,2.209c0-.615-1.242-1.139-2.779-1.139s-2.779.5-2.779,1.139h0V44.276h5.559Z" transform="translate(13.74 -0.99)" fill="#fff"/></svg>